<?xml version="1.0" standalone="no"?>
<!DOCTYPE svg PUBLIC "-//W3C//DTD SVG 20010904//EN"
 "http://www.w3.org/TR/2001/REC-SVG-20010904/DTD/svg10.dtd">
<svg version="1.0" xmlns="http://www.w3.org/2000/svg"
 width="500.000000pt" height="500.000000pt" viewBox="0 0 500.000000 500.000000"
 preserveAspectRatio="xMidYMid meet">
<metadata>
Created by potrace 1.16, written by Peter Selinger 2001-2019
</metadata>
<g transform="translate(0.000000,500.000000) scale(0.100000,-0.100000)"
fill="#000000" stroke="none">
<path d="M1404 4161 c-123 -58 -188 -159 -188 -291 0 -59 5 -86 25 -130 32
-68 96 -133 160 -163 l49 -22 0 -1055 0 -1055 -49 -22 c-158 -73 -231 -268
-159 -425 51 -112 152 -180 275 -186 136 -7 242 53 303 172 31 61 35 77 35
145 0 67 -5 86 -33 144 -37 74 -102 136 -167 157 l-35 12 0 1051 c0 898 2
1049 14 1037 8 -8 213 -278 457 -600 243 -322 611 -807 816 -1078 l374 -493
-31 -47 c-90 -136 -72 -303 45 -416 121 -118 326 -115 448 7 125 125 123 333
-3 456 -24 23 -65 51 -91 64 l-49 22 0 1055 0 1055 49 22 c201 93 250 364 94
520 -88 88 -228 117 -345 73 -168 -63 -252 -270 -176 -431 32 -71 91 -130 157
-161 l51 -23 0 -1050 c-1 -827 -3 -1047 -13 -1035 -15 19 -529 698 -1170 1543
l-475 627 33 56 c40 66 60 149 51 213 -3 25 -20 75 -38 111 -77 151 -260 214
-414 141z m218 -172 c59 -42 77 -133 38 -197 -26 -42 -99 -76 -144 -68 -154
29 -170 248 -21 289 34 9 97 -3 127 -24z m1959 11 c97 -50 108 -187 19 -250
-45 -32 -89 -36 -143 -12 -57 25 -87 70 -87 130 0 117 108 184 211 132z
m-1984 -2740 c102 -46 113 -186 21 -251 -41 -29 -120 -32 -160 -5 -97 64 -88
210 16 257 52 23 71 23 123 -1z m1983 1 c51 -26 80 -74 80 -130 0 -61 -28
-106 -85 -133 -41 -20 -49 -21 -92 -9 -77 20 -113 66 -113 143 0 58 30 104 83
128 53 25 83 25 127 1z"/>
</g>
</svg>
